<svg width="72" height="72" viewBox="0 0 72 72" fill="none" xmlns="http://www.w3.org/2000/svg">
<path d="M67.8617 13.9031C54.1047 11.4354 48.417 9.60772 36 4C23.583 9.60772 17.8953 11.4354 4.13833 13.9031C1.64601 53.4048 33.6277 67.0449 36 68.0003C38.3723 67.0449 70.354 53.4048 67.8617 13.9031Z" stroke="black" stroke-width="8" stroke-linecap="round" stroke-linejoin="round"/>
<path d="M36 17.5385C27.5 17.5385 20.6154 24.4231 20.6154 32.9231C20.6154 41.4231 27.5 48.3077 36 48.3077C44.5 48.3077 51.3846 41.4231 51.3846 32.9231C51.3846 24.4231 44.5 17.5385 36 17.5385ZM23.6923 32.9231C23.6923 26.1231 29.2 20.6154 36 20.6154C38.8462 20.6154 41.4538 21.5923 43.5385 23.2077L26.2846 40.4615C24.6692 38.3769 23.6923 35.7692 23.6923 32.9231ZM36 45.2308C33.1538 45.2308 30.5462 44.2539 28.4615 42.6385L45.7154 25.3846C47.3308 27.4692 48.3077 30.0769 48.3077 32.9231C48.3077 39.7231 42.8 45.2308 36 45.2308Z" fill="black"/>
</svg>
